<svg width="173" height="44" viewBox="0 0 173 44" fill="none" xmlns="http://www.w3.org/2000/svg">
<rect width="37" height="44" rx="4" fill="#23292F"/>
<path d="M9.664 33.128C9.64267 33.128 9.58933 33.0853 9.504 33C9.44 32.9147 9.39733 32.8613 9.376 32.84C9.33333 32.712 9.28 32.5947 9.216 32.488C9.17333 32.36 9.14133 32.232 9.12 32.104C9.09867 31.9973 9.088 31.9013 9.088 31.816C9.088 31.7307 9.09867 31.6453 9.12 31.56C9.12 31.4533 9.12 31.3787 9.12 31.336C9.12 31.1227 9.10933 30.9093 9.088 30.696C9.088 30.4827 9.088 30.2693 9.088 30.056C9.088 29.5013 9.07733 28.9573 9.056 28.424C9.056 27.8907 9.04533 27.3467 9.024 26.792C8.98133 25.9813 8.94933 25.1707 8.928 24.36C8.90667 23.528 8.91733 22.7067 8.96 21.896C9.00267 21.0427 9.03467 20.2 9.056 19.368C9.09867 18.5147 9.152 17.6613 9.216 16.808C9.23733 16.2533 9.25867 15.7093 9.28 15.176C9.30133 14.6213 9.32267 14.0667 9.344 13.512C9.36533 13.1707 9.376 12.7973 9.376 12.392C9.376 12.328 9.376 12.2533 9.376 12.168C9.35467 12.0827 9.344 11.9973 9.344 11.912C9.344 11.8267 9.35467 11.7413 9.376 11.656C9.41867 11.5067 9.46133 11.3573 9.504 11.208C9.568 11.0587 9.65333 10.92 9.76 10.792C9.97333 10.5787 10.1973 10.4613 10.432 10.44C10.6667 10.3973 10.912 10.376 11.168 10.376C11.2533 10.376 11.3173 10.376 11.36 10.376C11.616 10.376 11.872 10.376 12.128 10.376C12.4053 10.3547 12.672 10.344 12.928 10.344C13.4187 10.3227 13.8987 10.312 14.368 10.312C14.8587 10.2907 15.3493 10.3013 15.84 10.344C15.9467 10.344 16.0533 10.3547 16.16 10.376C16.2667 10.376 16.3627 10.376 16.448 10.376C16.4907 10.376 16.5547 10.376 16.64 10.376C16.896 10.3973 17.1413 10.4293 17.376 10.472C17.6107 10.5147 17.8347 10.632 18.048 10.824C18.24 11.0373 18.3467 11.272 18.368 11.528C18.3893 11.7627 18.4 12.008 18.4 12.264C18.4 12.328 18.4 12.3813 18.4 12.424C18.3787 12.7227 18.368 13.0213 18.368 13.32C18.368 13.5973 18.368 13.8853 18.368 14.184C18.368 14.504 18.368 14.824 18.368 15.144C18.368 15.464 18.368 15.784 18.368 16.104C18.368 16.68 18.368 17.256 18.368 17.832C18.368 18.408 18.3787 18.984 18.4 19.56C18.4213 19.7733 18.432 19.9867 18.432 20.2C18.432 20.4133 18.4427 20.6267 18.464 20.84C18.4853 21.2453 18.496 21.6613 18.496 22.088C18.5173 22.4933 18.528 22.8987 18.528 23.304C18.5067 23.7093 18.4853 24.1253 18.464 24.552C18.464 24.9573 18.464 25.3733 18.464 25.8C18.464 25.8213 18.464 25.864 18.464 25.928C18.528 25.928 18.5707 25.928 18.592 25.928C18.9973 25.928 19.392 25.928 19.776 25.928C20.6933 25.8853 21.6107 25.864 22.528 25.864C23.4453 25.864 24.3627 25.8427 25.28 25.8C25.3867 25.7787 25.4933 25.768 25.6 25.768C25.7067 25.768 25.8133 25.768 25.92 25.768C25.9627 25.768 26.016 25.768 26.08 25.768C26.336 25.7467 26.592 25.7573 26.848 25.8C27.104 25.8213 27.3387 25.928 27.552 26.12C27.7867 26.3333 27.9147 26.5787 27.936 26.856C27.9787 27.112 28 27.3893 28 27.688C28.0213 27.7733 28.032 27.8693 28.032 27.976C28.032 28.0613 28.032 28.1573 28.032 28.264C28.0747 28.7973 28.096 29.3413 28.096 29.896C28.1173 30.4293 28.1387 30.9627 28.16 31.496C28.16 31.5387 28.16 31.592 28.16 31.656C28.16 31.9333 28.1387 32.2 28.096 32.456C28.0747 32.712 27.968 32.9573 27.776 33.192C27.6693 33.32 27.5413 33.416 27.392 33.48C27.2427 33.544 27.0827 33.5973 26.912 33.64C26.8267 33.6613 26.7413 33.672 26.656 33.672C26.5707 33.672 26.4853 33.672 26.4 33.672C26.2933 33.672 26.2187 33.672 26.176 33.672C25.984 33.6933 25.7813 33.6933 25.568 33.672C25.3547 33.672 25.1413 33.672 24.928 33.672C24.2027 33.6293 23.4773 33.5867 22.752 33.544C22.048 33.5227 21.3333 33.5013 20.608 33.48C20.224 33.4587 19.84 33.4587 19.456 33.48C19.072 33.5013 18.688 33.5333 18.304 33.576C18.048 33.5973 17.792 33.608 17.536 33.608C17.28 33.6293 17.024 33.6507 16.768 33.672C16.4267 33.672 16.0853 33.6613 15.744 33.64C15.424 33.6187 15.0933 33.5973 14.752 33.576C14.56 33.576 14.368 33.5653 14.176 33.544C14.0053 33.544 13.824 33.5333 13.632 33.512C13.2907 33.512 12.9387 33.5013 12.576 33.48C12.2347 33.48 11.8827 33.48 11.52 33.48C11.3707 33.5013 11.2213 33.512 11.072 33.512C10.944 33.512 10.8053 33.512 10.656 33.512C10.6347 33.512 10.6027 33.5013 10.56 33.48C10.496 33.4587 10.464 33.448 10.464 33.448L9.664 33.128ZM10.144 10.888C10.144 10.888 10.1333 10.9093 10.112 10.952L10.176 11.304C10.176 11.304 10.1867 11.304 10.208 11.304L11.008 10.728L10.144 10.888ZM11.488 11.88C11.488 11.88 11.5093 11.88 11.552 11.88L11.84 11.144C12.0107 11.144 12.192 11.144 12.384 11.144L13.504 11.88L12.512 11.112C12.4693 11.1333 12.4267 11.144 12.384 11.144L11.968 10.792L11.84 11.144C11.8187 11.144 11.7973 11.144 11.776 11.144L11.488 11.88ZM17.184 11.208C17.1627 11.1867 17.1413 11.176 17.12 11.176L16.992 10.888L16.832 11.144C16.8107 11.144 16.7893 11.144 16.768 11.144L16.32 12.008L17.344 11.56L17.184 11.208ZM12.8 11.112L13.728 11.816L14.528 11.08C14.2507 11.08 13.9733 11.0907 13.696 11.112C13.44 11.112 13.184 11.112 12.928 11.112C12.9067 11.112 12.8853 11.112 12.864 11.112C12.8427 11.112 12.8213 11.112 12.8 11.112ZM13.984 11.848L15.808 12.008L15.264 11.08C15.1147 11.08 14.9547 11.08 14.784 11.08L13.984 11.848ZM16.032 11.976L16.544 11.144C16.5013 11.144 16.4587 11.144 16.416 11.144C16.3093 11.144 16.2027 11.144 16.096 11.144C16.0107 11.1227 15.9147 11.112 15.808 11.112C15.7013 11.112 15.5947 11.1013 15.488 11.08L16.032 11.976ZM11.2 11.144C11.1787 11.144 11.1573 11.144 11.136 11.144C11.072 11.144 11.008 11.144 10.944 11.144C10.88 11.144 10.816 11.144 10.752 11.144L10.4 11.4L11.232 11.752L11.2 11.144ZM17.12 11.176L17.28 11.592L16.352 11.912L16.832 11.144C16.9387 11.144 17.0347 11.1547 17.12 11.176ZM11.392 11.144L11.424 11.528L11.552 11.144C11.488 11.144 11.4347 11.144 11.392 11.144ZM10.784 13.416L11.232 12.008L10.336 11.656L10.784 13.416ZM16.16 12.232C16.16 12.232 16.16 12.2427 16.16 12.264L17.312 11.752L16.16 12.232ZM10.624 13.768L10.176 12.072L10.144 12.328C10.144 12.3493 10.144 12.3707 10.144 12.392C10.144 12.7973 10.1333 13.1813 10.112 13.544C10.112 13.6293 10.112 13.7147 10.112 13.8L10.624 13.768ZM12.512 13.928L13.472 12.072H11.584L12.512 13.928ZM13.856 12.072L14.176 13.8L15.776 12.264L13.856 12.072ZM16.704 13.736L17.6 14.28C17.6 14.2587 17.6 14.2267 17.6 14.184C17.6 13.9707 17.6 13.768 17.6 13.576L17.376 12.136L16.704 13.736ZM12.288 14.024L11.424 12.296L10.944 13.768L12.288 14.024ZM13.92 13.928L13.632 12.328L12.736 14.056L13.92 13.928ZM16.384 13.704L16 12.392L14.432 13.896L16.384 13.704ZM14.208 14.12L15.392 15.56L16.416 13.864L14.208 14.12ZM10.272 15.08L10.656 13.928L10.112 13.992C10.0907 14.1627 10.08 14.3653 10.08 14.6L10.272 15.08ZM17.6 14.504L16.704 13.96L17.6 15.688C17.6 15.4747 17.6 15.272 17.6 15.08C17.6 14.888 17.6 14.696 17.6 14.504ZM16.544 14.056L15.616 15.592L17.504 15.88L16.544 14.056ZM13.984 14.152C13.984 14.1307 13.984 14.12 13.984 14.12L12.672 14.248L14.08 15.336L13.984 14.152ZM11.36 15.944L13.856 15.4L12.544 14.408L11.36 15.944ZM10.432 15.24L10.88 15.752L10.72 14.408L10.432 15.24ZM14.24 14.44L14.272 15.368L15.072 15.496L14.24 14.44ZM10.112 15.24L10.048 15.08C10.048 15.1867 10.0693 15.24 10.112 15.24ZM15.232 15.784L14.336 15.624L14.944 17.096L15.232 15.784ZM12.992 17.064L13.856 15.656L11.392 16.2L12.992 17.064ZM14.784 17.352L14.112 15.752L13.248 17.128L14.784 17.352ZM10.912 16.168L10.528 15.752L10.752 16.616L10.912 16.168ZM10.592 16.968L10.272 15.752L9.984 16.744C9.984 16.808 9.984 16.84 9.984 16.84C9.984 16.8827 9.984 16.9253 9.984 16.968H10.592ZM16.736 17.672L15.456 15.976L15.136 17.416L16.736 17.672ZM12.48 17.064L11.104 16.328L10.912 16.968L12.48 17.064ZM17.6 16.712L17.216 17.672L17.6 17.64C17.6 17.4907 17.6 17.3413 17.6 17.192C17.6 17.0213 17.6 16.8613 17.6 16.712ZM9.856 19.208L10.624 17.16H9.952C9.93067 17.5013 9.90933 17.8427 9.888 18.184C9.888 18.5253 9.87733 18.8667 9.856 19.208ZM11.456 19.88L12.864 17.288L10.848 17.224L11.456 19.88ZM13.664 18.888L14.848 17.544L13.12 17.32L13.664 18.888ZM9.92 19.528L11.264 19.88L10.72 17.544L9.92 19.528ZM11.744 19.784L13.472 18.952L12.992 17.544L11.744 19.784ZM15.808 19.784L16.864 17.864L15.072 17.608L15.808 19.784ZM13.856 18.984L15.584 19.784L14.912 17.768L13.856 18.984ZM17.152 17.896C17.152 17.896 17.12 17.9387 17.056 18.024L17.024 18.792L17.152 17.896ZM16.768 19.144C16.768 19.1227 16.7787 19.112 16.8 19.112L16.832 18.472V18.28L16.16 19.624L16.832 18.472L16.736 19.144C16.736 19.144 16.7467 19.144 16.768 19.144ZM17.6 18.312L17.056 19.08L17.632 19.336C17.6107 19.016 17.6 18.6747 17.6 18.312ZM14.24 20.68L15.52 20.008L13.824 19.24L14.24 20.68ZM13.44 19.24L11.648 20.104L12.832 21.352L13.44 19.24ZM17.632 19.624L17.12 19.4L17.696 20.68C17.6747 20.488 17.664 20.3067 17.664 20.136C17.664 19.9653 17.6533 19.7947 17.632 19.624ZM14.016 20.808L13.632 19.464L13.12 21.352L14.016 20.808ZM16.64 19.496L15.968 20.04L16.256 20.808L16.64 19.496ZM17.664 21.288L16.896 19.528L16.448 21.096L17.664 21.288ZM11.264 20.168L10.08 19.848L11.136 21.16L11.264 20.168ZM9.888 21.352H10.944L9.888 19.976V21.352ZM16.096 21.032L15.744 20.2L14.592 20.808L16.096 21.032ZM12.576 21.448L11.52 20.36L11.36 21.352L12.576 21.448ZM16.16 21.224L14.304 20.968L15.264 22.696L16.16 21.224ZM13.6 23.656L14.08 21L13.024 21.64C13.024 21.64 13.024 21.6507 13.024 21.672C13.0027 21.672 12.992 21.6827 12.992 21.704L13.6 23.656ZM14.24 21.256L13.792 23.656L15.104 22.792L14.24 21.256ZM17.728 21.704C17.728 21.64 17.728 21.5653 17.728 21.48L16.384 21.288L16.96 23.816L17.728 21.704ZM15.424 22.792L16.768 23.752L16.224 21.512L15.424 22.792ZM10.016 23.4L11.072 21.544H9.888L10.016 23.4ZM11.296 23.272L12.768 21.672L11.264 21.608L11.296 23.272ZM11.488 23.336L13.408 23.752L12.832 21.864L11.488 23.336ZM10.176 23.528L11.104 23.336L11.072 21.96L10.176 23.528ZM17.728 22.248L17.216 23.656L17.76 23.272C17.76 22.952 17.7493 22.6107 17.728 22.248ZM15.072 23.112L13.792 23.944L14.72 24.936L15.072 23.112ZM16.8 24.968L15.328 23.112L14.944 25.064L16.8 24.968ZM16.896 24.68L16.832 24.104L15.936 23.464L16.896 24.68ZM9.696 24.584V23.496C9.696 23.8587 9.696 24.2213 9.696 24.584ZM11.104 23.592L10.176 23.784L11.168 24.744L11.104 23.592ZM17.76 23.592L17.184 24.008L17.728 24.328C17.728 24.2 17.728 24.0827 17.728 23.976C17.728 23.848 17.7387 23.72 17.76 23.592ZM13.248 23.976L11.552 23.624L12.224 24.552L13.248 23.976ZM12 24.648L11.392 23.848L11.424 24.872L12 24.648ZM14.432 25L13.568 24.072L12.576 24.648L14.432 25ZM17.728 24.584C17.728 24.5627 17.7173 24.5413 17.696 24.52L17.12 24.968L17.728 24.584ZM14.656 25.224L12.288 24.808L13.6 27.592L14.656 25.224ZM12.096 24.808L11.424 25.096C11.424 25.1173 11.4133 25.1387 11.392 25.16L11.584 26.472L12.096 24.808ZM17.696 25.192C17.7173 25.0853 17.728 24.968 17.728 24.84L17.152 25.192L17.408 26.824L17.696 25.192ZM9.888 25.736L11.136 25L9.888 25.672V25.736ZM11.712 26.696L13.344 27.496L12.224 25.064L11.712 26.696ZM14.88 25.256L15.648 26.728C15.648 26.728 15.6587 26.728 15.68 26.728L16.928 25.16L14.88 25.256ZM9.824 26.92L10.976 25.384L9.824 25.992V26.92ZM11.2 25.384L10.048 26.92L11.392 26.664L11.2 25.384ZM15.872 26.76L17.248 27.016L16.992 25.384L15.872 26.76ZM14.784 25.48L13.856 27.496L15.456 26.792L14.784 25.48ZM17.664 26.44L17.536 27.144L18.688 27.304C18.7093 27.2613 18.7627 27.24 18.848 27.24L19.872 26.664C19.8507 26.6853 19.8293 26.696 19.808 26.696C19.4027 26.696 18.9973 26.696 18.592 26.696C18.528 26.696 18.4427 26.7067 18.336 26.728C18.2293 26.7493 18.1333 26.76 18.048 26.76C17.9627 26.7387 17.8667 26.6853 17.76 26.6C17.7173 26.5573 17.6853 26.504 17.664 26.44ZM24.096 26.6L24.864 27.08L25.12 27.016L26.4 26.504C26.336 26.504 26.2507 26.5147 26.144 26.536C26.0587 26.536 25.984 26.536 25.92 26.536C25.8347 26.536 25.7387 26.536 25.632 26.536C25.5253 26.536 25.4187 26.5467 25.312 26.568C24.928 26.5893 24.5227 26.6 24.096 26.6ZM23.168 26.952L24.416 27.016L23.744 26.6C23.7013 26.6 23.6587 26.6 23.616 26.6L24.288 27.016L23.232 26.888L23.584 26.6C23.5413 26.6 23.5093 26.6 23.488 26.6L23.168 26.952ZM22.88 26.856L23.168 26.632C23.0187 26.632 22.8373 26.632 22.624 26.632L22.88 26.856ZM21.792 27.304L22.144 26.632C21.9307 26.632 21.7067 26.632 21.472 26.632C21.2587 26.632 21.0453 26.6427 20.832 26.664L21.792 27.304ZM22.08 27.176L22.688 26.952L22.368 26.632L22.08 27.176ZM19.232 27.24L21.376 27.304L20.512 26.664C20.4267 26.664 20.352 26.664 20.288 26.664L19.232 27.24ZM9.952 27.208L10.848 28.968L11.36 26.92L9.952 27.208ZM25.024 27.304L25.952 29.416L26.912 26.92L25.024 27.304ZM11.744 26.984L12.288 29.288L13.408 27.784L11.744 26.984ZM15.84 27.016L16.48 28.872L17.216 27.272L15.84 27.016ZM14.272 28.936L16.288 29.096L15.616 27.112L14.272 28.936ZM13.76 27.816L14.048 28.776L15.264 27.176L13.76 27.816ZM27.328 29.608C27.328 29.2453 27.3173 28.9147 27.296 28.616L27.072 27.24L26.144 29.608H27.328ZM21.92 27.528L22.016 28.264L22.624 27.24L21.92 27.528ZM12.064 29.416L11.552 27.272L11.04 29.224L12.064 29.416ZM22.88 27.272L22.144 28.552L23.456 28.84L22.88 27.272ZM17.6 27.336L18.176 28.936L18.592 27.464L17.6 27.336ZM25.728 29.544L24.8 27.464L23.84 28.968L25.728 29.544ZM19.04 27.496L20.576 29.384L21.568 27.56L19.04 27.496ZM17.408 27.528L16.672 29.096L18.016 29.224L17.408 27.528ZM18.368 29.256L20.32 29.448L18.816 27.624L18.368 29.256ZM10.688 29.224L9.888 27.656V29.448L10.688 29.224ZM21.824 28.584L21.728 27.848L20.992 29.192L21.824 28.584ZM13.856 28.968L13.568 28.04L12.544 29.352L13.856 28.968ZM23.552 29.096C23.552 29.096 23.5413 29.096 23.52 29.096C23.52 29.096 23.52 29.0853 23.52 29.064L22.08 28.776L22.944 30.984L23.552 29.096ZM21.696 31.336L21.856 28.776L20.736 29.672C20.7147 29.672 20.704 29.672 20.704 29.672L21.696 31.336ZM14.944 30.44L16.224 29.288L14.144 29.128L14.944 30.44ZM24.896 30.6C24.896 30.5787 24.9067 30.568 24.928 30.568L25.824 29.768L23.808 29.16L24.896 30.6ZM13.728 30.568L13.92 29.16L12.384 29.608L13.728 30.568ZM22.048 29.224L21.856 31.368L22.784 31.08L22.048 29.224ZM23.136 30.984L24.672 30.632L23.68 29.32L23.136 30.984ZM18.112 29.416C18.112 29.416 18.1013 29.416 18.08 29.416L16.736 29.32L17.792 30.312L18.112 29.416ZM16.416 29.352L15.232 30.536L16.48 29.416L17.632 30.44L16.416 29.352ZM11.392 31.08L12.128 29.64C12.1067 29.64 12.096 29.6293 12.096 29.608L11.04 29.416L11.392 31.08ZM19.168 30.536C19.1893 30.5147 19.2107 30.504 19.232 30.504L20.448 29.64L18.336 29.416L19.168 30.536ZM13.952 30.568L14.752 30.504L14.08 29.416L13.952 30.568ZM9.856 30.504L10.624 29.448L9.856 29.672C9.856 29.8 9.856 29.9173 9.856 30.024C9.856 30.1947 9.856 30.3547 9.856 30.504ZM11.232 31.272L10.784 29.544L9.92 30.856L10.816 29.64L11.232 31.272ZM17.984 30.376L18.88 30.472L18.24 29.608L17.984 30.376ZM11.584 31.176L13.504 30.632L12.256 29.768L11.584 31.176ZM27.328 29.8H26.112L27.36 31.176C27.36 30.9413 27.36 30.7067 27.36 30.472C27.36 30.2373 27.3493 30.0133 27.328 29.8ZM19.456 30.6L21.44 31.336L20.576 29.8L19.456 30.6ZM25.952 29.928L25.152 30.632L27.2 31.272L25.952 29.928ZM17.6 30.632L15.296 30.728L16.928 32.168L17.6 30.632ZM19.008 30.76L17.984 30.664L18.656 32.52L19.008 30.76ZM14.752 30.76L13.92 30.824L14.08 32.232L14.752 30.76ZM16.672 32.296L15.008 30.824L14.208 32.552L16.672 32.296ZM18.464 32.776C18.4213 32.776 18.4213 32.776 18.464 32.776L17.792 30.856L17.12 32.328L18.464 32.776ZM27.328 31.592L25.088 30.888L25.6 32.776L27.328 31.592ZM24.64 30.888L23.104 31.272L23.68 32.68L24.64 30.888ZM21.472 31.592L19.584 30.92L20.672 32.2L21.472 31.592ZM12.448 32.264L13.472 30.92L11.584 31.432L12.448 32.264ZM20.416 32.328L19.232 30.92L18.88 32.744C18.9653 32.744 19.04 32.744 19.104 32.744L20.416 32.328ZM13.856 32.552L13.696 31.048L12.704 32.36L13.856 32.552ZM25.344 32.872L24.864 31.048L23.872 32.84C23.9573 32.84 24.032 32.8507 24.096 32.872C24.16 32.872 24.2347 32.872 24.32 32.872H25.344ZM11.136 32.616L11.2 31.464L10.08 31.112L11.136 32.616ZM10.976 32.744L9.888 31.176C9.888 31.2187 9.888 31.272 9.888 31.336C9.888 31.3787 9.87733 31.4427 9.856 31.528C9.856 31.6133 9.856 31.688 9.856 31.752C9.856 31.816 9.86667 31.88 9.888 31.944C9.888 32.0293 9.90933 32.1147 9.952 32.2C9.99467 32.2853 10.0373 32.3707 10.08 32.456L10.688 32.744C10.7733 32.744 10.8693 32.744 10.976 32.744ZM21.888 31.624L22.272 32.52L22.72 31.368L21.888 31.624ZM22.816 32.808C22.9227 32.808 23.0293 32.808 23.136 32.808C23.2427 32.808 23.3493 32.8187 23.456 32.84L22.944 31.528L22.464 32.776L22.816 32.808ZM11.392 32.744C11.4133 32.744 11.4347 32.744 11.456 32.744C11.4773 32.744 11.4987 32.7333 11.52 32.712C11.5413 32.712 11.552 32.712 11.552 32.712L12.256 32.424L11.456 31.656L11.392 32.744ZM22.048 32.68L21.664 31.752L20.928 32.328L22.048 32.68ZM27.392 31.752L25.728 32.904C25.8773 32.9253 26.0267 32.9253 26.176 32.904C26.2187 32.904 26.272 32.904 26.336 32.904C26.5067 32.9253 26.6347 32.9253 26.72 32.904C26.8053 32.8827 26.8907 32.8613 26.976 32.84C27.0613 32.7973 27.136 32.744 27.2 32.68C27.3067 32.552 27.36 32.4133 27.36 32.264C27.3813 32.0933 27.392 31.9227 27.392 31.752ZM16.736 32.488L14.528 32.712L15.712 32.872H16.256L16.736 32.488ZM20.992 32.712C21.184 32.712 21.376 32.7227 21.568 32.744L20.832 32.52L20.992 32.712ZM17.984 32.808L17.152 32.52L17.408 32.872C17.5787 32.8507 17.7707 32.8293 17.984 32.808ZM20.352 32.552L19.872 32.712C19.9787 32.6907 20.0853 32.68 20.192 32.68L20.352 32.552ZM16.928 32.584L16.576 32.872H17.184L16.928 32.584ZM12.8 32.744L12.48 32.584L12.192 32.712C12.4053 32.712 12.608 32.7227 12.8 32.744ZM13.856 32.744L12.992 32.616L13.28 32.744C13.408 32.744 13.536 32.744 13.664 32.744C13.7493 32.744 13.8133 32.744 13.856 32.744Z" fill="white"/>
<path d="M51.464 31.5C51.2773 31.5 51.1093 31.4347 50.96 31.304C50.8107 31.1547 50.736 30.9773 50.736 30.772V12.628C50.736 12.4227 50.8107 12.2547 50.96 12.124C51.1093 11.9747 51.2773 11.9 51.464 11.9H56.112C56.3173 11.9 56.4947 11.9747 56.644 12.124C56.7933 12.2547 56.868 12.4227 56.868 12.628V26.516H64.96C65.1653 26.516 65.3427 26.5907 65.492 26.74C65.6413 26.8707 65.716 27.0387 65.716 27.244V30.772C65.716 30.9773 65.6413 31.1547 65.492 31.304C65.3427 31.4347 65.1653 31.5 64.96 31.5H51.464ZM68.3012 31.5C68.0959 31.5 67.9185 31.4347 67.7692 31.304C67.6385 31.1547 67.5732 30.9773 67.5732 30.772V17.668C67.5732 17.4627 67.6385 17.2947 67.7692 17.164C67.9185 17.0147 68.0959 16.94 68.3012 16.94H72.4452C72.6505 16.94 72.8279 17.0147 72.9772 17.164C73.1265 17.2947 73.2012 17.4627 73.2012 17.668V30.772C73.2012 30.9773 73.1265 31.1547 72.9772 31.304C72.8279 31.4347 72.6505 31.5 72.4452 31.5H68.3012ZM68.3572 15.12C68.1519 15.12 67.9745 15.0547 67.8252 14.924C67.6945 14.7747 67.6292 14.5973 67.6292 14.392V11.452C67.6292 11.2467 67.6945 11.0693 67.8252 10.92C67.9745 10.7707 68.1519 10.696 68.3572 10.696H72.3892C72.5945 10.696 72.7719 10.7707 72.9212 10.92C73.0705 11.0693 73.1452 11.2467 73.1452 11.452V14.392C73.1452 14.5973 73.0705 14.7747 72.9212 14.924C72.7719 15.0547 72.5945 15.12 72.3892 15.12H68.3572ZM76.8051 31.5C76.5998 31.5 76.4224 31.4347 76.2731 31.304C76.1424 31.1547 76.0771 30.9773 76.0771 30.772V17.668C76.0771 17.4627 76.1424 17.2947 76.2731 17.164C76.4224 17.0147 76.5998 16.94 76.8051 16.94H80.8651C81.0704 16.94 81.2384 17.0147 81.3691 17.164C81.5184 17.2947 81.5931 17.4627 81.5931 17.668V18.676C82.0784 18.116 82.7224 17.64 83.5251 17.248C84.3278 16.856 85.2424 16.66 86.2691 16.66C87.2771 16.66 88.1918 16.8933 89.0131 17.36C89.8344 17.8267 90.4971 18.5267 91.0011 19.46C91.5051 20.3933 91.7571 21.5693 91.7571 22.988V30.772C91.7571 30.9773 91.6824 31.1547 91.5331 31.304C91.3838 31.4347 91.2064 31.5 91.0011 31.5H86.5771C86.3718 31.5 86.1944 31.4347 86.0451 31.304C85.9144 31.1547 85.8491 30.9773 85.8491 30.772V23.184C85.8491 22.4933 85.6811 21.9613 85.3451 21.588C85.0091 21.2147 84.5331 21.028 83.9171 21.028C83.3011 21.028 82.8158 21.2147 82.4611 21.588C82.1064 21.9613 81.9291 22.4933 81.9291 23.184V30.772C81.9291 30.9773 81.8544 31.1547 81.7051 31.304C81.5744 31.4347 81.4064 31.5 81.2011 31.5H76.8051ZM95.2348 31.5C95.0294 31.5 94.8521 31.4347 94.7028 31.304C94.5721 31.1547 94.5068 30.9773 94.5068 30.772V12.348C94.5068 12.1427 94.5721 11.9747 94.7028 11.844C94.8521 11.6947 95.0294 11.62 95.2348 11.62H99.2948C99.5001 11.62 99.6681 11.6947 99.7988 11.844C99.9481 11.9747 100.023 12.1427 100.023 12.348V21.588L103.215 17.416C103.289 17.3227 103.392 17.22 103.523 17.108C103.653 16.996 103.84 16.94 104.083 16.94H108.787C108.973 16.94 109.123 17.0053 109.235 17.136C109.365 17.248 109.431 17.3973 109.431 17.584C109.431 17.6587 109.412 17.7427 109.375 17.836C109.356 17.9293 109.319 17.9947 109.263 18.032L104.811 23.492L109.963 30.436C110.056 30.5853 110.103 30.7253 110.103 30.856C110.103 31.0427 110.037 31.2013 109.907 31.332C109.795 31.444 109.645 31.5 109.459 31.5H104.587C104.307 31.5 104.101 31.444 103.971 31.332C103.859 31.2013 103.756 31.0987 103.663 31.024L100.023 25.984V30.772C100.023 30.9773 99.9481 31.1547 99.7988 31.304C99.6681 31.4347 99.5001 31.5 99.2948 31.5H95.2348ZM116.944 31.78C115.936 31.78 115.012 31.5467 114.172 31.08C113.351 30.6133 112.697 29.9133 112.212 28.98C111.727 28.0467 111.484 26.8707 111.484 25.452V17.668C111.484 17.4627 111.549 17.2947 111.68 17.164C111.829 17.0147 112.007 16.94 112.212 16.94H116.636C116.841 16.94 117.009 17.0147 117.14 17.164C117.289 17.2947 117.364 17.4627 117.364 17.668V25.256C117.364 26.6933 118.008 27.412 119.296 27.412C119.912 27.412 120.388 27.2253 120.724 26.852C121.079 26.4787 121.256 25.9467 121.256 25.256V17.668C121.256 17.4627 121.321 17.2947 121.452 17.164C121.601 17.0147 121.779 16.94 121.984 16.94H126.408C126.595 16.94 126.763 17.0147 126.912 17.164C127.061 17.2947 127.136 17.4627 127.136 17.668V30.772C127.136 30.9773 127.061 31.1547 126.912 31.304C126.763 31.4347 126.595 31.5 126.408 31.5H122.32C122.115 31.5 121.937 31.4347 121.788 31.304C121.657 31.1547 121.592 30.9773 121.592 30.772V29.764C121.125 30.4547 120.491 30.968 119.688 31.304C118.885 31.6213 117.971 31.78 116.944 31.78ZM130.754 31.5C130.549 31.5 130.372 31.4347 130.222 31.304C130.092 31.1547 130.026 30.9773 130.026 30.772V17.668C130.026 17.4627 130.092 17.2947 130.222 17.164C130.372 17.0147 130.549 16.94 130.754 16.94H134.59C134.796 16.94 134.964 17.0147 135.094 17.164C135.244 17.2947 135.318 17.4627 135.318 17.668V18.592C135.673 18.144 136.186 17.724 136.858 17.332C137.53 16.9213 138.324 16.6973 139.238 16.66C141.422 16.604 142.897 17.388 143.662 19.012C144.092 18.34 144.698 17.78 145.482 17.332C146.285 16.884 147.134 16.66 148.03 16.66C149.001 16.66 149.869 16.884 150.634 17.332C151.418 17.7613 152.044 18.4333 152.51 19.348C152.977 20.244 153.21 21.42 153.21 22.876V30.772C153.21 30.9773 153.136 31.1547 152.986 31.304C152.856 31.4347 152.688 31.5 152.482 31.5H148.394C148.189 31.5 148.012 31.4347 147.862 31.304C147.732 31.1547 147.666 30.9773 147.666 30.772V23.044C147.666 22.5587 147.592 22.176 147.442 21.896C147.293 21.5973 147.097 21.3827 146.854 21.252C146.63 21.1027 146.36 21.028 146.042 21.028C145.744 21.028 145.473 21.1027 145.23 21.252C144.988 21.3827 144.792 21.5973 144.642 21.896C144.512 22.176 144.446 22.5587 144.446 23.044V30.772C144.446 30.9773 144.372 31.1547 144.222 31.304C144.092 31.4347 143.924 31.5 143.718 31.5H139.63C139.425 31.5 139.248 31.4347 139.098 31.304C138.968 31.1547 138.902 30.9773 138.902 30.772V23.044C138.902 22.5587 138.828 22.176 138.678 21.896C138.529 21.5973 138.333 21.3827 138.09 21.252C137.866 21.1027 137.596 21.028 137.278 21.028C136.98 21.028 136.709 21.1027 136.466 21.252C136.224 21.4013 136.028 21.616 135.878 21.896C135.729 22.176 135.654 22.5587 135.654 23.044V30.772C135.654 30.9773 135.58 31.1547 135.43 31.304C135.3 31.4347 135.132 31.5 134.926 31.5H130.754ZM163.284 31.78C161.641 31.78 160.25 31.5373 159.112 31.052C157.992 30.5667 157.133 29.8573 156.536 28.924C155.938 27.972 155.602 26.8333 155.528 25.508C155.509 25.116 155.5 24.6867 155.5 24.22C155.5 23.7533 155.509 23.324 155.528 22.932C155.602 21.588 155.957 20.4493 156.592 19.516C157.226 18.5827 158.104 17.8733 159.224 17.388C160.362 16.9027 161.716 16.66 163.284 16.66C164.852 16.66 166.196 16.9027 167.316 17.388C168.454 17.8733 169.341 18.5827 169.976 19.516C170.61 20.4493 170.965 21.588 171.04 22.932C171.077 23.324 171.096 23.7533 171.096 24.22C171.096 24.6867 171.077 25.116 171.04 25.508C170.965 26.8333 170.629 27.972 170.032 28.924C169.434 29.8573 168.566 30.5667 167.428 31.052C166.308 31.5373 164.926 31.78 163.284 31.78ZM163.284 27.832C163.974 27.832 164.45 27.6267 164.712 27.216C164.973 26.8053 165.122 26.1893 165.16 25.368C165.178 25.088 165.188 24.7053 165.188 24.22C165.188 23.7347 165.178 23.352 165.16 23.072C165.122 22.2693 164.973 21.6627 164.712 21.252C164.45 20.8227 163.974 20.608 163.284 20.608C162.612 20.608 162.145 20.8227 161.884 21.252C161.622 21.6627 161.464 22.2693 161.408 23.072C161.389 23.352 161.38 23.7347 161.38 24.22C161.38 24.7053 161.389 25.088 161.408 25.368C161.464 26.1893 161.622 26.8053 161.884 27.216C162.145 27.6267 162.612 27.832 163.284 27.832Z" fill="#23292F"/>
</svg>
